<svg xmlns="http://www.w3.org/2000/svg" xmlns:xlink="http://www.w3.org/1999/xlink" width="68" height="68" viewBox="0 0 68 68">
  <defs>
    <clipPath id="clip-WhatsApp_Circle_White_68x68">
      <rect width="68" height="68"/>
    </clipPath>
  </defs>
  <g id="WhatsApp_Circle_White_68x68" clip-path="url(#clip-WhatsApp_Circle_White_68x68)">
    <g id="WhatsApp-Logo">
      <g id="WhatsApp-Logo-2" data-name="WhatsApp-Logo">
        <path id="路径_10" data-name="路径 10" d="M480.132,366.163c-.842-.421-4.981-2.458-5.753-2.739s-1.333-.421-1.894.421-2.175,2.739-2.666,3.3-.982.632-1.824.211a22.985,22.985,0,0,1-6.771-4.179,25.371,25.371,0,0,1-4.684-5.832c-.491-.843-.052-1.3.369-1.718.379-.377.842-.983,1.263-1.475a5.738,5.738,0,0,0,.842-1.4,1.55,1.55,0,0,0-.07-1.475c-.21-.421-1.894-4.566-2.6-6.252-.683-1.642-1.378-1.419-1.894-1.445-.49-.024-1.052-.029-1.614-.029A3.094,3.094,0,0,0,450.6,344.6a9.444,9.444,0,0,0-2.947,7.024c0,4.144,3.017,8.148,3.438,8.71s5.937,9.066,14.383,12.713a48.291,48.291,0,0,0,4.8,1.773,11.536,11.536,0,0,0,5.3.334c1.618-.242,4.981-2.036,5.683-4a7.04,7.04,0,0,0,.491-4c-.21-.351-.772-.562-1.614-.984M464.77,387.139h-.011a27.965,27.965,0,0,1-14.255-3.9l-1.023-.607-10.6,2.781,2.829-10.335-.666-1.06a28.006,28.006,0,1,1,23.725,13.125M488.606,335.3a33.7,33.7,0,0,0-53.034,40.657l-4.78,17.461,17.863-4.686a33.664,33.664,0,0,0,16.1,4.1h.014A33.71,33.71,0,0,0,488.606,335.3" transform="translate(-430.791 -325.414)" fill="#fff" fill-rule="evenodd"/>
      </g>
    </g>
  </g>
</svg>
